<mxfile host="Electron" agent="Mozilla/5.0 (Windows NT 10.0; Win64; x64) AppleWebKit/537.36 (KHTML, like Gecko) draw.io/24.7.17 Chrome/128.0.6613.36 Electron/32.0.1 Safari/537.36" version="24.7.17">
  <diagram name="Trang-1" id="bMiknARZJnXVaoL8tnX3">
    <mxGraphModel dx="915" dy="625" grid="1" gridSize="10" guides="1" tooltips="1" connect="1" arrows="1" fold="1" page="1" pageScale="1" pageWidth="827" pageHeight="1169" math="0" shadow="0">
      <root>
        <mxCell id="0" />
        <mxCell id="1" parent="0" />
        <mxCell id="c5IgZS8KUTy0unRA6LIm-13" style="edgeStyle=orthogonalEdgeStyle;rounded=0;orthogonalLoop=1;jettySize=auto;html=1;exitX=0.5;exitY=1;exitDx=0;exitDy=0;entryX=0.5;entryY=0;entryDx=0;entryDy=0;" parent="1" source="gOC3_Gfe7DvDGcyzSAZS-1" target="c5IgZS8KUTy0unRA6LIm-6" edge="1">
          <mxGeometry relative="1" as="geometry" />
        </mxCell>
        <object label="Start" start="" id="gOC3_Gfe7DvDGcyzSAZS-1">
          <mxCell style="ellipse;whiteSpace=wrap;html=1;fontSize=24;" parent="1" vertex="1">
            <mxGeometry x="530" y="20" width="120" height="60" as="geometry" />
          </mxCell>
        </object>
        <object label="end" start="" id="c5IgZS8KUTy0unRA6LIm-1">
          <mxCell style="ellipse;whiteSpace=wrap;html=1;fontSize=24;" parent="1" vertex="1">
            <mxGeometry x="530" y="720" width="120" height="60" as="geometry" />
          </mxCell>
        </object>
        <mxCell id="c5IgZS8KUTy0unRA6LIm-4" value="4&amp;lt;a&amp;lt;6&lt;span style=&quot;white-space: pre;&quot;&gt;&#x9;&lt;/span&gt;" style="rhombus;whiteSpace=wrap;html=1;" parent="1" vertex="1">
          <mxGeometry x="320" y="300" width="170" height="80" as="geometry" />
        </mxCell>
        <mxCell id="c5IgZS8KUTy0unRA6LIm-18" style="edgeStyle=orthogonalEdgeStyle;rounded=0;orthogonalLoop=1;jettySize=auto;html=1;exitX=0.5;exitY=1;exitDx=0;exitDy=0;" parent="1" edge="1">
          <mxGeometry relative="1" as="geometry">
            <mxPoint x="214.51999999999998" y="380" as="sourcePoint" />
            <mxPoint x="214.51999999999998" y="480" as="targetPoint" />
            <Array as="points">
              <mxPoint x="214.51999999999998" y="450" />
              <mxPoint x="214.51999999999998" y="450" />
            </Array>
          </mxGeometry>
        </mxCell>
        <mxCell id="RoReMOkBkYpSv9IFZ_Ye-6" style="edgeStyle=orthogonalEdgeStyle;rounded=0;orthogonalLoop=1;jettySize=auto;html=1;exitX=0.5;exitY=1;exitDx=0;exitDy=0;entryX=0.5;entryY=0;entryDx=0;entryDy=0;" edge="1" parent="1" source="c5IgZS8KUTy0unRA6LIm-6" target="RoReMOkBkYpSv9IFZ_Ye-22">
          <mxGeometry relative="1" as="geometry">
            <Array as="points">
              <mxPoint x="590" y="260" />
              <mxPoint x="215" y="260" />
            </Array>
          </mxGeometry>
        </mxCell>
        <mxCell id="c5IgZS8KUTy0unRA6LIm-6" value="nhập a" style="shape=parallelogram;perimeter=parallelogramPerimeter;whiteSpace=wrap;html=1;fixedSize=1;" parent="1" vertex="1">
          <mxGeometry x="530" y="160" width="120" height="60" as="geometry" />
        </mxCell>
        <mxCell id="c5IgZS8KUTy0unRA6LIm-9" value="trung bình" style="rounded=0;whiteSpace=wrap;html=1;" parent="1" vertex="1">
          <mxGeometry x="345" y="480" width="120" height="60" as="geometry" />
        </mxCell>
        <mxCell id="RoReMOkBkYpSv9IFZ_Ye-9" style="edgeStyle=orthogonalEdgeStyle;rounded=0;orthogonalLoop=1;jettySize=auto;html=1;exitX=0.5;exitY=1;exitDx=0;exitDy=0;entryX=0.5;entryY=0;entryDx=0;entryDy=0;" edge="1" parent="1" source="c5IgZS8KUTy0unRA6LIm-11" target="c5IgZS8KUTy0unRA6LIm-1">
          <mxGeometry relative="1" as="geometry" />
        </mxCell>
        <mxCell id="c5IgZS8KUTy0unRA6LIm-11" value="hợp lệ" style="shape=parallelogram;perimeter=parallelogramPerimeter;whiteSpace=wrap;html=1;fixedSize=1;" parent="1" vertex="1">
          <mxGeometry x="530" y="620" width="120" height="60" as="geometry" />
        </mxCell>
        <mxCell id="RoReMOkBkYpSv9IFZ_Ye-11" value="6&amp;lt;a&amp;lt;8" style="rhombus;whiteSpace=wrap;html=1;" vertex="1" parent="1">
          <mxGeometry x="505" y="300" width="170" height="80" as="geometry" />
        </mxCell>
        <mxCell id="RoReMOkBkYpSv9IFZ_Ye-12" style="edgeStyle=orthogonalEdgeStyle;rounded=0;orthogonalLoop=1;jettySize=auto;html=1;entryX=0.5;entryY=0;entryDx=0;entryDy=0;" edge="1" parent="1" target="RoReMOkBkYpSv9IFZ_Ye-25">
          <mxGeometry relative="1" as="geometry">
            <mxPoint x="590" y="260" as="sourcePoint" />
            <mxPoint x="455" y="310" as="targetPoint" />
            <Array as="points">
              <mxPoint x="705" y="261" />
              <mxPoint x="955" y="260" />
            </Array>
          </mxGeometry>
        </mxCell>
        <mxCell id="RoReMOkBkYpSv9IFZ_Ye-13" value="khá" style="rounded=0;whiteSpace=wrap;html=1;" vertex="1" parent="1">
          <mxGeometry x="540" y="480" width="120" height="60" as="geometry" />
        </mxCell>
        <mxCell id="RoReMOkBkYpSv9IFZ_Ye-14" style="edgeStyle=orthogonalEdgeStyle;rounded=0;orthogonalLoop=1;jettySize=auto;html=1;exitX=0.5;exitY=1;exitDx=0;exitDy=0;" edge="1" parent="1">
          <mxGeometry relative="1" as="geometry">
            <mxPoint x="404.52" y="380" as="sourcePoint" />
            <mxPoint x="404.52" y="480" as="targetPoint" />
            <Array as="points">
              <mxPoint x="404.52" y="450" />
              <mxPoint x="404.52" y="450" />
            </Array>
          </mxGeometry>
        </mxCell>
        <mxCell id="RoReMOkBkYpSv9IFZ_Ye-22" value="a&amp;lt;4" style="rhombus;whiteSpace=wrap;html=1;" vertex="1" parent="1">
          <mxGeometry x="130" y="300" width="170" height="80" as="geometry" />
        </mxCell>
        <mxCell id="RoReMOkBkYpSv9IFZ_Ye-24" value="8&amp;lt;a&amp;lt;9" style="rhombus;whiteSpace=wrap;html=1;" vertex="1" parent="1">
          <mxGeometry x="690" y="300" width="170" height="80" as="geometry" />
        </mxCell>
        <mxCell id="RoReMOkBkYpSv9IFZ_Ye-25" value="9&amp;lt;a&amp;lt;10" style="rhombus;whiteSpace=wrap;html=1;" vertex="1" parent="1">
          <mxGeometry x="870" y="300" width="170" height="80" as="geometry" />
        </mxCell>
        <mxCell id="RoReMOkBkYpSv9IFZ_Ye-30" style="edgeStyle=orthogonalEdgeStyle;rounded=0;orthogonalLoop=1;jettySize=auto;html=1;entryX=0.5;entryY=0;entryDx=0;entryDy=0;" edge="1" parent="1">
          <mxGeometry relative="1" as="geometry">
            <mxPoint x="405" y="260" as="sourcePoint" />
            <mxPoint x="404.52" y="300" as="targetPoint" />
          </mxGeometry>
        </mxCell>
        <mxCell id="RoReMOkBkYpSv9IFZ_Ye-31" style="edgeStyle=orthogonalEdgeStyle;rounded=0;orthogonalLoop=1;jettySize=auto;html=1;entryX=0.5;entryY=0;entryDx=0;entryDy=0;" edge="1" parent="1">
          <mxGeometry relative="1" as="geometry">
            <mxPoint x="590" y="260" as="sourcePoint" />
            <mxPoint x="589.52" y="300" as="targetPoint" />
          </mxGeometry>
        </mxCell>
        <mxCell id="RoReMOkBkYpSv9IFZ_Ye-32" style="edgeStyle=orthogonalEdgeStyle;rounded=0;orthogonalLoop=1;jettySize=auto;html=1;entryX=0.5;entryY=0;entryDx=0;entryDy=0;" edge="1" parent="1">
          <mxGeometry relative="1" as="geometry">
            <mxPoint x="775" y="260" as="sourcePoint" />
            <mxPoint x="774.52" y="300" as="targetPoint" />
          </mxGeometry>
        </mxCell>
        <mxCell id="RoReMOkBkYpSv9IFZ_Ye-33" value="không đạt" style="rounded=0;whiteSpace=wrap;html=1;" vertex="1" parent="1">
          <mxGeometry x="155" y="480" width="120" height="60" as="geometry" />
        </mxCell>
        <mxCell id="RoReMOkBkYpSv9IFZ_Ye-34" value="giỏi" style="rounded=0;whiteSpace=wrap;html=1;" vertex="1" parent="1">
          <mxGeometry x="715" y="480" width="120" height="60" as="geometry" />
        </mxCell>
        <mxCell id="RoReMOkBkYpSv9IFZ_Ye-35" value="xuất sắc" style="rounded=0;whiteSpace=wrap;html=1;" vertex="1" parent="1">
          <mxGeometry x="895" y="480" width="120" height="60" as="geometry" />
        </mxCell>
        <mxCell id="RoReMOkBkYpSv9IFZ_Ye-36" style="edgeStyle=orthogonalEdgeStyle;rounded=0;orthogonalLoop=1;jettySize=auto;html=1;exitX=0.5;exitY=1;exitDx=0;exitDy=0;" edge="1" parent="1">
          <mxGeometry relative="1" as="geometry">
            <mxPoint x="589.52" y="380" as="sourcePoint" />
            <mxPoint x="589.52" y="480" as="targetPoint" />
            <Array as="points">
              <mxPoint x="589.52" y="450" />
              <mxPoint x="589.52" y="450" />
            </Array>
          </mxGeometry>
        </mxCell>
        <mxCell id="RoReMOkBkYpSv9IFZ_Ye-37" style="edgeStyle=orthogonalEdgeStyle;rounded=0;orthogonalLoop=1;jettySize=auto;html=1;exitX=0.5;exitY=1;exitDx=0;exitDy=0;" edge="1" parent="1">
          <mxGeometry relative="1" as="geometry">
            <mxPoint x="774.52" y="380" as="sourcePoint" />
            <mxPoint x="774.52" y="480" as="targetPoint" />
            <Array as="points">
              <mxPoint x="774.52" y="450" />
              <mxPoint x="774.52" y="450" />
            </Array>
          </mxGeometry>
        </mxCell>
        <mxCell id="RoReMOkBkYpSv9IFZ_Ye-38" style="edgeStyle=orthogonalEdgeStyle;rounded=0;orthogonalLoop=1;jettySize=auto;html=1;exitX=0.5;exitY=1;exitDx=0;exitDy=0;" edge="1" parent="1">
          <mxGeometry relative="1" as="geometry">
            <mxPoint x="954.52" y="380" as="sourcePoint" />
            <mxPoint x="954.52" y="480" as="targetPoint" />
            <Array as="points">
              <mxPoint x="954.52" y="450" />
              <mxPoint x="954.52" y="450" />
            </Array>
          </mxGeometry>
        </mxCell>
        <mxCell id="RoReMOkBkYpSv9IFZ_Ye-39" value="" style="endArrow=classic;html=1;rounded=0;entryX=0;entryY=0.5;entryDx=0;entryDy=0;exitX=0.5;exitY=1;exitDx=0;exitDy=0;" edge="1" parent="1" source="RoReMOkBkYpSv9IFZ_Ye-33" target="c5IgZS8KUTy0unRA6LIm-11">
          <mxGeometry width="50" height="50" relative="1" as="geometry">
            <mxPoint x="200" y="650" as="sourcePoint" />
            <mxPoint x="250" y="584" as="targetPoint" />
            <Array as="points">
              <mxPoint x="215" y="650" />
            </Array>
          </mxGeometry>
        </mxCell>
        <mxCell id="RoReMOkBkYpSv9IFZ_Ye-44" value="true" style="edgeLabel;html=1;align=center;verticalAlign=middle;resizable=0;points=[];" vertex="1" connectable="0" parent="RoReMOkBkYpSv9IFZ_Ye-39">
          <mxGeometry x="-0.7427" y="2" relative="1" as="geometry">
            <mxPoint as="offset" />
          </mxGeometry>
        </mxCell>
        <mxCell id="RoReMOkBkYpSv9IFZ_Ye-40" value="" style="endArrow=classic;html=1;rounded=0;entryX=1;entryY=0.5;entryDx=0;entryDy=0;exitX=0.5;exitY=1;exitDx=0;exitDy=0;" edge="1" parent="1" source="RoReMOkBkYpSv9IFZ_Ye-35" target="c5IgZS8KUTy0unRA6LIm-11">
          <mxGeometry width="50" height="50" relative="1" as="geometry">
            <mxPoint x="660" y="540" as="sourcePoint" />
            <mxPoint x="985" y="650" as="targetPoint" />
            <Array as="points">
              <mxPoint x="955" y="650" />
            </Array>
          </mxGeometry>
        </mxCell>
        <mxCell id="RoReMOkBkYpSv9IFZ_Ye-43" value="true" style="edgeLabel;html=1;align=center;verticalAlign=middle;resizable=0;points=[];" vertex="1" connectable="0" parent="RoReMOkBkYpSv9IFZ_Ye-40">
          <mxGeometry x="-0.7277" y="-2" relative="1" as="geometry">
            <mxPoint as="offset" />
          </mxGeometry>
        </mxCell>
        <mxCell id="RoReMOkBkYpSv9IFZ_Ye-41" style="edgeStyle=orthogonalEdgeStyle;rounded=0;orthogonalLoop=1;jettySize=auto;html=1;exitX=0.5;exitY=1;exitDx=0;exitDy=0;" edge="1" parent="1">
          <mxGeometry relative="1" as="geometry">
            <mxPoint x="774.52" y="540" as="sourcePoint" />
            <mxPoint x="774.52" y="640" as="targetPoint" />
            <Array as="points">
              <mxPoint x="774.52" y="610" />
              <mxPoint x="774.52" y="610" />
            </Array>
          </mxGeometry>
        </mxCell>
        <mxCell id="RoReMOkBkYpSv9IFZ_Ye-42" value="true" style="edgeLabel;html=1;align=center;verticalAlign=middle;resizable=0;points=[];" vertex="1" connectable="0" parent="RoReMOkBkYpSv9IFZ_Ye-41">
          <mxGeometry x="-0.0143" relative="1" as="geometry">
            <mxPoint as="offset" />
          </mxGeometry>
        </mxCell>
        <mxCell id="RoReMOkBkYpSv9IFZ_Ye-45" style="edgeStyle=orthogonalEdgeStyle;rounded=0;orthogonalLoop=1;jettySize=auto;html=1;exitX=0.5;exitY=1;exitDx=0;exitDy=0;" edge="1" parent="1">
          <mxGeometry relative="1" as="geometry">
            <mxPoint x="404.52" y="540" as="sourcePoint" />
            <mxPoint x="404.52" y="640" as="targetPoint" />
            <Array as="points">
              <mxPoint x="404.52" y="610" />
              <mxPoint x="404.52" y="610" />
            </Array>
          </mxGeometry>
        </mxCell>
        <mxCell id="RoReMOkBkYpSv9IFZ_Ye-46" value="true" style="edgeLabel;html=1;align=center;verticalAlign=middle;resizable=0;points=[];" vertex="1" connectable="0" parent="RoReMOkBkYpSv9IFZ_Ye-45">
          <mxGeometry x="-0.0143" relative="1" as="geometry">
            <mxPoint as="offset" />
          </mxGeometry>
        </mxCell>
        <mxCell id="RoReMOkBkYpSv9IFZ_Ye-47" style="edgeStyle=orthogonalEdgeStyle;rounded=0;orthogonalLoop=1;jettySize=auto;html=1;exitX=0.5;exitY=1;exitDx=0;exitDy=0;" edge="1" parent="1">
          <mxGeometry relative="1" as="geometry">
            <mxPoint x="599.52" y="540" as="sourcePoint" />
            <mxPoint x="600" y="610" as="targetPoint" />
            <Array as="points">
              <mxPoint x="599.52" y="610" />
              <mxPoint x="599.52" y="610" />
            </Array>
          </mxGeometry>
        </mxCell>
        <mxCell id="RoReMOkBkYpSv9IFZ_Ye-48" value="true" style="edgeLabel;html=1;align=center;verticalAlign=middle;resizable=0;points=[];" vertex="1" connectable="0" parent="RoReMOkBkYpSv9IFZ_Ye-47">
          <mxGeometry x="-0.0143" relative="1" as="geometry">
            <mxPoint as="offset" />
          </mxGeometry>
        </mxCell>
      </root>
    </mxGraphModel>
  </diagram>
</mxfile>
